<?xml version="1.0" encoding="UTF-8" standalone="no"?>
<svg width="55px" height="41px" viewBox="0 0 55 41" version="1.1" xmlns="http://www.w3.org/2000/svg" xmlns:xlink="http://www.w3.org/1999/xlink" xmlns:sketch="http://www.bohemiancoding.com/sketch/ns">
    <!-- Generator: Sketch 3.2.2 (9983) - http://www.bohemiancoding.com/sketch -->
    <title>Group</title>
    <desc>Created with Sketch.</desc>
    <defs></defs>
    <g id="Page-1" stroke="none" stroke-width="1" fill="none" fill-rule="evenodd" sketch:type="MSPage">
        <g id="Group" sketch:type="MSLayerGroup">
            <path d="M54.1,40.8 L0.5,40.8 L0.5,0.6 L3.8,0.6 L3.8,37.4 L54.1,37.4 L54.1,40.8" id="Fill-21" fill="#63574B" sketch:type="MSShapeGroup"></path>
            <path d="M40.7,4 L47.4,4 L47.4,17.1 L40.7,17.1 L40.7,4 Z" id="Fill-57" fill="#096FB8" sketch:type="MSShapeGroup"></path>
            <path d="M30.6,14 L37.3,14 L37.3,27.7 L30.6,27.7 L30.6,14 Z" id="Fill-58" fill="#096FB8" sketch:type="MSShapeGroup"></path>
            <path d="M20.6,7.3 L27.3,7.3 L27.3,18.2 L20.6,18.2 L20.6,7.3 Z" id="Fill-59" fill="#096FB8" sketch:type="MSShapeGroup"></path>
            <path d="M10.5,20.7 L17.2,20.7 L17.2,27.7 L10.5,27.7 L10.5,20.7 Z" id="Fill-60" fill="#096FB8" sketch:type="MSShapeGroup"></path>
            <path d="M40.7,18.6 L47.4,18.6 L47.4,34 L40.7,34 L40.7,18.6 Z" id="Fill-61" fill="#F7931F" sketch:type="MSShapeGroup"></path>
            <path d="M30.6,29.2 L37.3,29.2 L37.3,34 L30.6,34 L30.6,29.2 Z" id="Fill-62" fill="#F7931F" sketch:type="MSShapeGroup"></path>
            <path d="M20.6,19.8 L27.3,19.8 L27.3,34.1 L20.6,34.1 L20.6,19.8 Z" id="Fill-63" fill="#F7931F" sketch:type="MSShapeGroup"></path>
            <path d="M10.5,29.2 L17.2,29.2 L17.2,34 L10.5,34 L10.5,29.2 Z" id="Fill-64" fill="#F7931F" sketch:type="MSShapeGroup"></path>
        </g>
    </g>
</svg>