<?xml version="1.0" encoding="UTF-8" standalone="no"?>
<svg width="55px" height="41px" viewBox="0 0 55 41" version="1.1" xmlns="http://www.w3.org/2000/svg" xmlns:xlink="http://www.w3.org/1999/xlink" xmlns:sketch="http://www.bohemiancoding.com/sketch/ns">
    <!-- Generator: Sketch 3.2.2 (9983) - http://www.bohemiancoding.com/sketch -->
    <title>Group</title>
    <desc>Created with Sketch.</desc>
    <defs></defs>
    <g id="Page-1" stroke="none" stroke-width="1" fill="none" fill-rule="evenodd" sketch:type="MSPage">
        <g id="Group" sketch:type="MSLayerGroup">
            <path d="M54.4,40.2 L0.8,40.2 L0.8,0 L4.1,0 L4.1,36.9 L54.4,36.9 L54.4,40.2" id="Fill-51" fill="#63574B" sketch:type="MSShapeGroup"></path>
            <path d="M15.5,24.2 C18.096,24.2 20.2,26.304 20.2,28.9 C20.2,31.496 18.096,33.6 15.5,33.6 C12.904,33.6 10.8,31.496 10.8,28.9 C10.8,26.304 12.904,24.2 15.5,24.2" id="Fill-52" fill="#096FB8" sketch:type="MSShapeGroup"></path>
            <path d="M25.6,24.8 C27.091,24.8 28.3,26.009 28.3,27.5 C28.3,28.991 27.091,30.2 25.6,30.2 C24.109,30.2 22.9,28.991 22.9,27.5 C22.9,26.009 24.109,24.8 25.6,24.8" id="Fill-53" fill="#F7931F" sketch:type="MSShapeGroup"></path>
            <path d="M22.9,9.8 C25.275,9.8 27.2,11.725 27.2,14.1 C27.2,16.475 25.275,18.4 22.9,18.4 C20.525,18.4 18.6,16.475 18.6,14.1 C18.6,11.725 20.525,9.8 22.9,9.8" id="Fill-54" fill="#096FB8" sketch:type="MSShapeGroup"></path>
            <path d="M33.3,18.4 C35.067,18.4 36.5,19.833 36.5,21.6 C36.5,23.367 35.067,24.8 33.3,24.8 C31.533,24.8 30.1,23.367 30.1,21.6 C30.1,19.833 31.533,18.4 33.3,18.4" id="Fill-55" fill="#096FB8" sketch:type="MSShapeGroup"></path>
            <path d="M41,3.4 C44.7,3.4 47.7,6.4 47.7,10.1 C47.7,13.8 44.7,16.8 41,16.8 C37.3,16.8 34.3,13.8 34.3,10.1 C34.3,6.4 37.3,3.4 41,3.4" id="Fill-56" fill="#F7931F" sketch:type="MSShapeGroup"></path>
        </g>
    </g>
</svg>