<?xml version="1.0" encoding="UTF-8" standalone="no"?>
<svg width="64px" height="37px" viewBox="0 0 64 37" version="1.1" xmlns="http://www.w3.org/2000/svg" xmlns:xlink="http://www.w3.org/1999/xlink" xmlns:sketch="http://www.bohemiancoding.com/sketch/ns">
    <!-- Generator: Sketch 3.3.3 (12072) - http://www.bohemiancoding.com/sketch -->
    <title>Choropleth-Selected</title>
    <desc>Created with Sketch.</desc>
    <defs></defs>
    <g id="chart-icons" stroke="none" stroke-width="1" fill="none" fill-rule="evenodd" sketch:type="MSPage">
        <g id="Choropleth-Selected" sketch:type="MSLayerGroup" transform="translate(0.500000, 0.000000)">
            <path d="M54.0276989,15.8265806 L53.7015054,15.5623226 L53.9485591,15.2670968 L54.2747527,15.5313548 L54.0276989,15.8265806 Z" id="Shape" fill="#000000" sketch:type="MSShapeGroup"></path>
            <path d="M1.26486022,5.81298925 L0.460387097,5.32025806 L0.460387097,1.66950538 L2.97565591,3.09058065 L2.97565591,1.56765591 L8.01307527,1.56765591 L8.01307527,5.81298925 L1.26486022,5.81298925 Z" id="Shape" fill="#FF913D" sketch:type="MSShapeGroup"></path>
            <path d="M8.01307527,9.92068817 L0.460387097,9.92068817 L0.460387097,5.86597849 L1.13410753,6.27819355 L8.01307527,6.27819355 L8.01307527,9.92068817 Z" id="Shape" fill="#FBBB77" sketch:type="MSShapeGroup"></path>
            <path d="M9.11483871,22.7633548 L8.38950538,23.3847742 L8.3888172,26.160172 L5.01126882,26.160172 L5.01126882,24.1534624 L3.35277419,23.1363441 L3.35277419,22.384172 L0.460387097,16.3385806 L0.460387097,10.3858925 L4.39466667,10.3858925 L4.39466667,14.6243441 L9.11483871,22.7633548 Z" id="Shape" fill="#EE7619" sketch:type="MSShapeGroup"></path>
            <path d="M10.0844731,10.3858925 L10.0844731,20.0189247 L9.18021505,20.0189247 L9.18021505,21.9485591 L4.86055914,14.4990968 L4.86055914,10.3858925 L10.0844731,10.3858925 Z" id="Shape" fill="#FBBB77" sketch:type="MSShapeGroup"></path>
            <path d="M8.47827957,9.92068817 L8.47827957,1.56765591 L9.18090323,1.56765591 L9.18090323,3.15113978 L10.4512688,3.15113978 L11.6046452,6.57066667 L14.1866667,7.41711828 L14.7956989,8.02683871 L14.7956989,9.92068817 L8.47827957,9.92068817 Z" id="Shape" fill="#FBBB77" sketch:type="MSShapeGroup"></path>
            <path d="M14.7956989,12.8722581 L16.9042581,12.8722581 L16.9042581,19.3025376 L10.5503656,19.3025376 L10.5503656,10.3858925 L14.7956989,10.3858925 L14.7956989,12.8722581 Z" id="Shape" fill="#FDD09F" sketch:type="MSShapeGroup"></path>
            <path d="M10.5503656,19.7677419 L16.9042581,19.7677419 L16.9042581,28.3912258 L13.1172473,28.3912258 L8.85402151,26.2964301 L8.85470968,23.5987957 L9.64610753,22.9780645 L9.64610753,20.484129 L10.5503656,20.484129 L10.5503656,19.7677419 Z" id="Shape" fill="#FDD09F" sketch:type="MSShapeGroup"></path>
            <path d="M23.8231398,27.6906667 L18.4925591,27.6906667 L18.4925591,28.3912258 L17.3701505,28.3912258 L17.3701505,19.7684301 L23.8231398,19.7684301 L23.8231398,27.6906667 Z" id="Shape" fill="#FBBB77" sketch:type="MSShapeGroup"></path>
            <path d="M10.7857204,2.68593548 L9.64610753,2.68593548 L9.64610753,1.56765591 L23.763957,1.56765591 L23.763957,6.41651613 L14.7956989,6.41651613 L14.7956989,7.36825806 L14.4378495,7.00972043 L11.9707527,6.20043011 L10.7857204,2.68593548 Z" id="Shape" fill="#FDD09F" sketch:type="MSShapeGroup"></path>
            <rect id="Rectangle-path" fill="#FDD09F" sketch:type="MSShapeGroup" x="15.2609032" y="6.88172043" width="8.50305376" height="5.52464516"></rect>
            <rect id="Rectangle-path" fill="#FDD09F" sketch:type="MSShapeGroup" x="17.3701505" y="12.8729462" width="8.69092473" height="6.4295914"></rect>
            <rect id="Rectangle-path" fill="#FDD09F" sketch:type="MSShapeGroup" x="24.2291613" y="1.56765591" width="6.12817204" height="3.15251613"></rect>
            <rect id="Rectangle-path" fill="#FBBB77" sketch:type="MSShapeGroup" x="24.2291613" y="5.18606452" width="6.12817204" height="4.50890323"></rect>
            <path d="M26.5269677,12.4070538 L24.2291613,12.4070538 L24.2291613,10.160172 L30.3573333,10.160172 L30.3573333,10.8235699 L32.5732473,14.2912688 L26.5269677,14.2912688 L26.5269677,12.4070538 Z" id="Shape" fill="#FDD09F" sketch:type="MSShapeGroup"></path>
            <path d="M33.900043,19.3025376 L26.5269677,19.3025376 L26.5269677,14.7564731 L32.8705376,14.7564731 L33.900043,16.368172 L33.900043,19.3025376 Z" id="Shape" fill="#FDD09F" sketch:type="MSShapeGroup"></path>
            <path d="M28.4139355,23.0833548 L28.4139355,20.9458925 L24.2890323,20.9458925 L24.2890323,19.7684301 L26.5269677,19.7684301 L26.5269677,19.7677419 L33.900043,19.7677419 L33.900043,25.8202151 L31.6297634,24.6131613 L30.8672688,25.1575054 L28.4139355,23.0833548 Z" id="Shape" fill="#FBBB77" sketch:type="MSShapeGroup"></path>
            <path d="M28.7009032,34.9625806 L29.2686452,36.8020645 L25.7617204,36.007914 L22.9195699,31.5292903 L21.5101935,32.7108817 L19.023828,28.3912258 L19.023828,28.1565591 L24.2890323,28.1565591 L24.2890323,21.4110968 L27.948043,21.4110968 L27.948043,23.2987527 L30.8431828,25.7465806 L31.6662366,25.1595699 L33.900043,26.3473548 L33.900043,30.7874409 L28.7009032,34.9625806 Z" id="Shape" fill="#FF913D" sketch:type="MSShapeGroup"></path>
            <path d="M35.3307527,8.26219355 L30.8225376,8.26219355 L30.8225376,1.56765591 L36.4655484,1.56765591 L34.9866667,3.968 L34.9811613,3.97763441 L34.7705806,4.31896774 L34.7781505,4.31896774 L33.8793978,5.83432258 L35.3307527,7.34554839 L35.3307527,8.26219355 Z" id="Shape" fill="#FDD09F" sketch:type="MSShapeGroup"></path>
            <path d="M32.0261505,12.5715269 L30.8225376,10.6873118 L30.8225376,8.72739785 L35.3307527,8.72739785 L35.3307527,9.11965591 L36.864,10.6356989 L36.3485591,11.0148817 L36.3485591,12.5715269 L32.0261505,12.5715269 Z" id="Shape" fill="#FDD09F" sketch:type="MSShapeGroup"></path>
            <path d="M34.3652473,16.231914 L32.3234409,13.0367312 L36.4586667,13.0367312 L37.8824946,15.36 L38.6422366,15.36 L38.124043,16.0550538 L39.3606882,19.0389677 L34.3652473,19.0389677 L34.3652473,16.231914 Z" id="Shape" fill="#FDD09F" sketch:type="MSShapeGroup"></path>
            <path d="M37.9685161,25.9750538 L34.3652473,25.9750538 L34.3652473,19.5048602 L39.9538925,19.5048602 L37.9685161,23.9704086 L37.9685161,25.9750538 Z" id="Shape" fill="#FDD09F" sketch:type="MSShapeGroup"></path>
            <path d="M37.2349247,32.0612473 L34.3652473,30.7495914 L34.3652473,26.4402581 L37.9685161,26.4402581 L37.9685161,27.1167312 L37.0209032,28.5852903 L40.0791398,28.5852903 L40.0784516,32.0612473 L37.2349247,32.0612473 Z" id="Shape" fill="#FBBB77" sketch:type="MSShapeGroup"></path>
            <path d="M35.3190538,4.31896774 L37.3849462,4.31896774 L40.3055484,6.02907527 L40.3055484,9.31716129 L36.179957,9.30477419 L35.7966452,8.9255914 L35.7966452,7.15767742 L34.4602151,5.76756989 L35.3190538,4.31896774 Z" id="Shape" fill="#FBBB77" sketch:type="MSShapeGroup"></path>
            <path d="M38.6553118,16.1211183 L39.5692043,14.8941075 L38.1433118,14.8941075 L36.8137634,12.7249892 L36.8137634,11.2509247 L37.5790108,10.688 L36.652043,9.77135484 L40.4590108,9.78305376 L41.6612473,10.6962581 L41.6612473,15.8389677 L41.0350108,17.5442581 L39.4769892,18.1044301 L38.6553118,16.1211183 Z" id="Shape" fill="#EE7619" sketch:type="MSShapeGroup"></path>
            <path d="M39.2065376,22.3304946 L41.9626667,22.3304946 L41.9626667,29.3636129 L40.5443441,29.3636129 L40.5443441,28.120086 L37.8749247,28.120086 L38.4337204,27.2536774 L38.4337204,24.0695054 L39.2065376,22.3304946 Z" id="Shape" fill="#FDD09F" sketch:type="MSShapeGroup"></path>
            <path d="M40.5058065,5.60722581 L37.8102366,4.02924731 L38.7220645,3.0031828 L38.7220645,4.20541935 L40.6950538,4.20541935 L41.787871,2.66116129 L43.6755269,2.66116129 L40.5058065,5.60722581 Z" id="Shape" fill="#FDD09F" sketch:type="MSShapeGroup"></path>
            <path d="M45.2032688,14.0572903 L44.1847742,15.1776344 L42.1271398,15.596043 L42.1271398,10.7230968 L43.0809462,10.2351828 L45.2032688,10.2351828 L45.2032688,14.0572903 Z" id="Shape" fill="#EE7619" sketch:type="MSShapeGroup"></path>
            <path d="M45.6932473,28.0072258 L43.5833118,28.0072258 L43.5833118,29.3636129 L42.4285591,29.3636129 L42.4285591,22.3304946 L45.6932473,22.3304946 L45.6932473,28.0072258 Z" id="Shape" fill="#FDD09F" sketch:type="MSShapeGroup"></path>
            <path d="M43.2571183,6.48946237 L44.8846452,5.03535484 L45.4296774,5.03535484 L45.4296774,7.03243011 L46.6725161,7.03243011 L46.6725161,9.76929032 L43.2571183,9.76929032 L43.2571183,6.48946237 Z" id="Shape" fill="#FDD09F" sketch:type="MSShapeGroup"></path>
            <path d="M48.7260215,17.1347957 L47.4948817,19.0389677 L39.8644301,19.0389677 L39.6552258,18.5352258 L41.3969892,17.9089892 L42.067957,16.0825806 L44.4270108,15.6036129 L45.459957,14.4667527 L48.7260215,17.1347957 Z" id="Shape" fill="#FBBB77" sketch:type="MSShapeGroup"></path>
            <path d="M46.6725161,10.235871 L48.8966882,10.235871 L49.9702366,8.96894624 L50.0032688,8.93109677 L50.0032688,12.4084301 L49.2655484,12.4084301 L49.2655484,14.5734194 L47.8313978,15.8031828 L45.6684731,14.0366452 L45.6684731,10.2351828 L46.6725161,10.2351828 L46.6725161,10.235871 Z" id="Shape" fill="#FBBB77" sketch:type="MSShapeGroup"></path>
            <path d="M47.8196989,20.9851183 L47.2333763,21.8652903 L39.4136774,21.8652903 L40.4631398,19.5048602 L50.3349677,19.5048602 L49.8002581,20.5742796 L47.8196989,20.9851183 Z" id="Shape" fill="#FDD09F" sketch:type="MSShapeGroup"></path>
            <path d="M47.2436989,22.3304946 L50.4409462,26.4464516 L50.7162151,26.9522581 L50.2152258,26.9515699 L50.2152258,28.0072258 L46.1584516,28.0072258 L46.1584516,22.3304946 L47.2436989,22.3304946 Z" id="Shape" fill="#FBBB77" sketch:type="MSShapeGroup"></path>
            <path d="M50.8325161,13.8295054 L50.8325161,15.1349677 L52.3850323,15.1349677 L50.5132043,16.8870538 L49.1581935,16.8870538 L48.1975054,16.1025376 L49.7307527,14.7874409 L49.7307527,12.8736344 L50.0032688,12.8736344 L50.0032688,13.8295054 L50.8325161,13.8295054 Z" id="Shape" fill="#FF913D" sketch:type="MSShapeGroup"></path>
            <path d="M50.6584086,25.968172 L47.8334624,22.3304946 L51.1683441,22.3304946 L53.056,23.5891613 L50.6584086,25.968172 Z" id="Shape" fill="#FBBB77" sketch:type="MSShapeGroup"></path>
            <path d="M50.3487312,33.6715699 L49.1967312,29.1186237 L46.4887742,29.1186237 L45.6058495,30.0015484 L44.967914,29.3636129 L44.0485161,29.3636129 L44.0485161,28.4724301 L50.6804301,28.4724301 L50.6804301,27.4174624 L50.9694624,27.4181505 L53.4551398,31.9917419 L53.4551398,35.7209462 L50.3487312,33.6715699 Z" id="Shape" fill="#EE7619" sketch:type="MSShapeGroup"></path>
            <path d="M54.031828,16.3723011 L55.152172,18.5372903 L55.152172,19.0389677 L48.0488602,19.0389677 L49.1396129,17.3529462 L50.6976344,17.3529462 L52.7834839,15.3992258 L54.031828,16.3723011 Z" id="Shape" fill="#FF913D" sketch:type="MSShapeGroup"></path>
            <path d="M50.8552258,19.5048602 L55.152172,19.5048602 L55.152172,21.5108817 L53.3932043,23.2547097 L51.3094194,21.8652903 L47.7928602,21.8652903 L48.1018495,21.4021505 L50.1154409,20.9844301 L50.8552258,19.5048602 Z" id="Shape" fill="#FBBB77" sketch:type="MSShapeGroup"></path>
            <path id="Shape" fill="#000000" sketch:type="MSShapeGroup" d="M55.8685591,13.8295054 L56.2002581,15.4990108 L55.7233548,15.4990108 L55.7233548,13.8295054 L55.8685591,13.8295054 Z"></path>
            <path d="M55.2581505,15.9649032 L56.2511828,15.9649032 L56.2511828,16.5147527 L55.1824516,16.5147527 L54.3153548,16.0027527 L54.7984516,15.472172 L53.8811183,14.7702366 L53.3993978,15.2891183 L52.6052473,14.6697634 L51.2977204,14.6697634 L51.2977204,13.8295054 L55.2581505,13.8295054 L55.2581505,15.9649032 Z" id="Shape" fill="#FF913D" sketch:type="MSShapeGroup"></path>
            <path d="M55.2939355,11.0265806 L56.3427097,12.0904946 L55.8947097,13.3643011 L50.4684731,13.3643011 L50.4684731,8.39363441 L51.2227097,7.5224086 L51.3252473,7.5224086 L51.3252473,9.44447312 L56.1507097,9.44447312 L56.4314839,9.77892473 L55.2939355,11.0265806 Z" id="Shape" fill="#EE7619" sketch:type="MSShapeGroup"></path>
            <path d="M56.7363441,10.1415914 L57.1636989,10.6501505 L57.1636989,13.7427957 L56.3557849,13.4551398 L56.8787957,11.9707527 L55.9181075,10.9969892 L56.7363441,10.1415914 Z" id="Shape" fill="#EE7619" sketch:type="MSShapeGroup"></path>
            <path d="M58.9384946,9.57935484 L57.7300645,9.94477419 L57.7300645,8.72739785 L58.9384946,8.72739785 L58.9384946,9.57935484 Z" id="Shape" fill="#FBBB77" sketch:type="MSShapeGroup"></path>
            <path d="M58.2406882,6.79294624 L57.7803011,6.79294624 L57.7803011,3.64043011 L59.1456344,3.64111828 L59.1456344,4.37333333 L58.2406882,5.20258065 L58.2406882,6.79294624 Z" id="Shape" fill="#FDD09F" sketch:type="MSShapeGroup"></path>
            <path id="Shape" fill="#000000" sketch:type="MSShapeGroup" d="M59.8097204,8.72739785 L59.8097204,9.30339785 L59.4036989,9.43208602 L59.4036989,8.72739785 L59.8097204,8.72739785 Z"></path>
            <path d="M58.8579785,5.38219355 L59.6115269,4.55294624 L59.6115269,3.64111828 L60.6086882,3.64111828 L60.6086882,6.79294624 L58.8579785,6.79294624 L58.8579785,5.38219355 Z" id="Shape" fill="#FDD09F" sketch:type="MSShapeGroup"></path>
            <path d="M61.3477849,8.14107527 L61.0773333,8.81273118 L60.2735484,9.0756129 L60.2735484,8.2608172 L57.7803011,8.2608172 L57.7803011,7.25883871 L60.6086882,7.25883871 L60.6086882,8.57255914 L60.9465806,8.58701075 L61.3477849,8.14107527 Z" id="Shape" fill="#FDD09F" sketch:type="MSShapeGroup"></path>
            <path d="M60.9465806,6.07311828 L60.9465806,3.2688172 L61.7710108,0.211268817 L62.3862366,0.211268817 L62.3862366,2.02047312 L63.3655054,2.02047312 L63.3655054,3.05686022 L60.9465806,6.07311828 Z" id="Shape" fill="#FBBB77" sketch:type="MSShapeGroup"></path>
            <path id="Shape" fill="#000000" sketch:type="MSShapeGroup" d="M56.6750968,15.4990108 L56.6750968,15.4990108 L56.7473931,15.4990108 L56.6750968,15.4990108 L56.6750968,15.4990108 Z"></path>
            <path d="M59.056172,10.0837849 L57.5786667,10.5882151 L56.3674839,8.97789247 L51.7897634,8.97789247 L51.7897634,7.52309677 L53.7565591,7.52309677 L55.7157849,3.64111828 L57.3150968,3.64111828 L57.3150968,9.61858065 L57.7300645,10.2551398 L59.0018065,9.92688172 L59.056172,10.0837849 Z" id="Shape" fill="#FF913D" sketch:type="MSShapeGroup"></path>
        </g>
    </g>
</svg>