<?xml version="1.0" encoding="UTF-8" standalone="no"?>
<svg width="55px" height="41px" viewBox="0 0 55 41" version="1.1" xmlns="http://www.w3.org/2000/svg" xmlns:xlink="http://www.w3.org/1999/xlink" xmlns:sketch="http://www.bohemiancoding.com/sketch/ns">
    <!-- Generator: Sketch 3.2.2 (9983) - http://www.bohemiancoding.com/sketch -->
    <title>Group</title>
    <desc>Created with Sketch.</desc>
    <defs></defs>
    <g id="Page-1" stroke="none" stroke-width="1" fill="none" fill-rule="evenodd" sketch:type="MSPage">
        <g id="Group" sketch:type="MSLayerGroup">
            <path d="M54.1,40.2 L0.5,40.2 L0.5,0 L3.8,0 L3.8,36.9 L54.1,36.9 L54.1,40.2" id="Fill-22" fill="#63574B" sketch:type="MSShapeGroup"></path>
            <path d="M10.5,5.1 L20.6,5.1 L20.6,11.8 L10.5,11.8 L10.5,5.1 Z" id="Fill-65" fill="#F7931F" sketch:type="MSShapeGroup"></path>
            <path d="M10.5,15.2 L25,15.2 L25,21.9 L10.5,21.9 L10.5,15.2 Z" id="Fill-66" fill="#F7931F" sketch:type="MSShapeGroup"></path>
            <path d="M10.5,25.2 L31.5,25.2 L31.5,31.9 L10.5,31.9 L10.5,25.2 Z" id="Fill-67" fill="#F7931F" sketch:type="MSShapeGroup"></path>
            <path d="M22.2,5.1 L43.6,5.1 L43.6,11.8 L22.2,11.8 L22.2,5.1 Z" id="Fill-68" fill="#096FB8" sketch:type="MSShapeGroup"></path>
            <path d="M26.6,15.2 L35.3,15.2 L35.3,21.9 L26.6,21.9 L26.6,15.2 Z" id="Fill-69" fill="#096FB8" sketch:type="MSShapeGroup"></path>
            <path d="M33.2,25.2 L47.8,25.2 L47.8,31.9 L33.2,31.9 L33.2,25.2 Z" id="Fill-70" fill="#096FB8" sketch:type="MSShapeGroup"></path>
        </g>
    </g>
</svg>