<?xml version="1.0" encoding="UTF-8" standalone="no"?>
<svg width="61px" height="47px" viewBox="0 0 61 47" version="1.1" xmlns="http://www.w3.org/2000/svg" xmlns:xlink="http://www.w3.org/1999/xlink" xmlns:sketch="http://www.bohemiancoding.com/sketch/ns">
    <!-- Generator: Sketch 3.2.2 (9983) - http://www.bohemiancoding.com/sketch -->
    <title>Shape</title>
    <desc>Created with Sketch.</desc>
    <defs></defs>
    <g id="Selene's-Working-file" stroke="none" stroke-width="1" fill="none" fill-rule="evenodd" sketch:type="MSPage">
        <path d="M0.0154009077,0 L61,0 L61,46.3937948 L0.0154009077,46.3937948 L0.0154009077,0 Z M22.7451409,5.2941908 L22.7451409,13.4866612 L54.8422983,13.4866612 L54.8422983,5.2941908 L22.7451409,5.2941908 Z M22.7451409,19.0979971 L22.7451409,27.2904675 L54.8422983,27.2904675 L54.8422983,19.0979971 L22.7451409,19.0979971 Z M22.7451409,32.7432309 L22.7451409,40.9357013 L54.8422983,40.9357013 L54.8422983,32.7432309 L22.7451409,32.7432309 Z M6.29534767,13.4866612 L15.9244949,13.4866612 L15.9244949,5.2941908 L6.29534767,5.2941908 L6.29534767,13.4866612 Z M6.29534767,27.2904675 L15.9244949,27.2904675 L15.9244949,19.0979971 L6.29534767,19.0979971 L6.29534767,27.2904675 Z M6.29534767,40.9357013 L15.9244949,40.9357013 L15.9244949,32.7432309 L6.29534767,32.7432309 L6.29534767,40.9357013 Z" id="Shape" fill="#63574B" sketch:type="MSShapeGroup"></path>
    </g>
</svg>