<?xml version="1.0" encoding="UTF-8" standalone="no"?>
<svg width="42px" height="41px" viewBox="0 0 42 41" version="1.1" xmlns="http://www.w3.org/2000/svg" xmlns:xlink="http://www.w3.org/1999/xlink" xmlns:sketch="http://www.bohemiancoding.com/sketch/ns">
    <!-- Generator: Sketch 3.2.2 (9983) - http://www.bohemiancoding.com/sketch -->
    <title>Fill 26 + Fill 27 + Fill 28</title>
    <desc>Created with Sketch.</desc>
    <defs></defs>
    <g id="Page-1" stroke="none" stroke-width="1" fill="none" fill-rule="evenodd" sketch:type="MSPage">
        <g id="Fill-26-+-Fill-27-+-Fill-28" sketch:type="MSLayerGroup">
            <path d="M26.1,28.8 C24.2,30.7 21.6,31.9 18.7,31.9 C12.9,31.9 8.3,27.2 8.3,21.5 C8.3,15.8 13,11.1 18.7,11.1 L18.7,3.3 C8.5,3.3 0.3,11.6 0.3,21.7 C0.3,31.9 8.6,40.1 18.7,40.1 C23.8,40.1 28.5,38 31.8,34.6 L26.1,28.8" id="Fill-26" fill="#096FB8" sketch:type="MSShapeGroup"></path>
            <path d="M21.8,0 L21.8,8 C27.6,8 32.2,12.7 32.2,18.4 L40.2,18.4 C40.3,8.2 32,0 21.8,0" id="Fill-27" fill="#7999CF" sketch:type="MSShapeGroup"></path>
            <path d="M33.7,21.5 C33.7,24.4 32.5,27 30.6,28.9 L36.3,34.6 C39.7,31.3 41.8,26.6 41.8,21.5 L33.7,21.5" id="Fill-28" fill="#CDD6ED" sketch:type="MSShapeGroup"></path>
        </g>
    </g>
</svg>