<?xml version="1.0" encoding="UTF-8" standalone="no"?>
<svg width="54px" height="41px" viewBox="0 0 54 41" version="1.1" xmlns="http://www.w3.org/2000/svg" xmlns:xlink="http://www.w3.org/1999/xlink" xmlns:sketch="http://www.bohemiancoding.com/sketch/ns">
    <!-- Generator: Sketch 3.2.2 (9983) - http://www.bohemiancoding.com/sketch -->
    <title>Group</title>
    <desc>Created with Sketch.</desc>
    <defs></defs>
    <g id="Page-1" stroke="none" stroke-width="1" fill="none" fill-rule="evenodd" sketch:type="MSPage">
        <g id="Group" sketch:type="MSLayerGroup">
            <path d="M0,0 L13.4,0 L13.4,13.4 L0,13.4 L0,0 Z" id="Fill-80" fill="#FDD09F" sketch:type="MSShapeGroup"></path>
            <path d="M0,13.4 L13.4,13.4 L13.4,26.8 L0,26.8 L0,13.4 Z" id="Fill-81" fill="#FBBB77" sketch:type="MSShapeGroup"></path>
            <path d="M0,26.8 L13.4,26.8 L13.4,40.2 L0,40.2 L0,26.8 Z" id="Fill-82" fill="#FEE5CB" sketch:type="MSShapeGroup"></path>
            <path d="M13.4,0 L26.8,0 L26.8,13.4 L13.4,13.4 L13.4,0 Z" id="Fill-83" fill="#FBBB77" sketch:type="MSShapeGroup"></path>
            <path d="M13.4,13.4 L26.8,13.4 L26.8,26.8 L13.4,26.8 L13.4,13.4 Z" id="Fill-84" fill="#F7931F" sketch:type="MSShapeGroup"></path>
            <path d="M13.4,26.8 L26.8,26.8 L26.8,40.2 L13.4,40.2 L13.4,26.8 Z" id="Fill-85" fill="#FBBB77" sketch:type="MSShapeGroup"></path>
            <path d="M26.8,0 L40.2,0 L40.2,13.4 L26.8,13.4 L26.8,0 Z" id="Fill-86" fill="#F9A64C" sketch:type="MSShapeGroup"></path>
            <path d="M26.8,13.4 L40.2,13.4 L40.2,26.8 L26.8,26.8 L26.8,13.4 Z" id="Fill-87" fill="#FBBB77" sketch:type="MSShapeGroup"></path>
            <path d="M26.8,26.8 L40.2,26.8 L40.2,40.2 L26.8,40.2 L26.8,26.8 Z" id="Fill-88" fill="#F9A64C" sketch:type="MSShapeGroup"></path>
            <path d="M40.2,0 L53.6,0 L53.6,13.4 L40.2,13.4 L40.2,0 Z" id="Fill-89" fill="#FBBB77" sketch:type="MSShapeGroup"></path>
            <path d="M40.2,13.4 L53.6,13.4 L53.6,26.8 L40.2,26.8 L40.2,13.4 Z" id="Fill-90" fill="#FEE5CB" sketch:type="MSShapeGroup"></path>
            <path d="M40.2,26.8 L53.6,26.8 L53.6,40.2 L40.2,40.2 L40.2,26.8 Z" id="Fill-91" fill="#FBBB77" sketch:type="MSShapeGroup"></path>
        </g>
    </g>
</svg>