<?xml version="1.0" encoding="UTF-8" standalone="no"?>
<svg width="52px" height="30px" viewBox="0 0 52 30" version="1.1" xmlns="http://www.w3.org/2000/svg" xmlns:xlink="http://www.w3.org/1999/xlink" xmlns:sketch="http://www.bohemiancoding.com/sketch/ns">
    <!-- Generator: Sketch 3.3.3 (12081) - http://www.bohemiancoding.com/sketch -->
    <title>Group</title>
    <desc>Created with Sketch.</desc>
    <defs>
        <path d="M52.4603125,7.77142857 L52.7246875,7.77142857 L53.0059375,7.48571429 L52.8596875,7.86857143 L52.2184375,8.28571429 L52.2128125,8.29142857 L50.0921875,8.97142857 L50.0921875,11.8228571 L48.9446875,11.4 L49.3609375,13.5428571 L49.3609375,14.1257143 L48.5678125,14.1257143 L47.1953125,13.2971429 L48.4778125,15.8514286 L48.4778125,18.2685714 L44.6134375,22.2 L47.1165625,26.9257143 L47.1165625,29.8914286 L44.7203125,28.2685714 L43.7921875,24.4971429 L41.5590625,24.4971429 L40.8728125,25.2057143 L40.3778125,24.7028571 L36.3953125,24.7028571 L36.3953125,26.3428571 L34.1734375,26.3428571 L31.6365625,25.1542857 L27.2603125,28.7657143 L27.6990625,30.2285714 L24.9878125,29.6 L22.6871875,25.8857143 L21.5565625,26.8571429 L19.0084375,23.3257143 L16.5334375,23.3257143 L16.5334375,23.9542857 L13.1471875,23.9542857 L11.3078125,22.0628571 L8.3659375,22.0628571 L8.3659375,20.4342857 L7.0271875,19.5942857 L7.0271875,19.0571429 L4.7153125,14.0171429 L4.7153125,2.03428571 L6.7346875,3.20571429 L6.7346875,1.92 L33.4534375,1.92 L32.0921875,4.18285714 L34.4378125,4.18285714 L35.3040625,3.17714286 L35.3040625,4.09142857 L36.9634375,4.09142857 L37.8353125,2.81714286 L39.2021875,2.81714286 L36.5696875,5.32571429 L36.5696875,8.56 L37.8690625,9.57142857 L39.0390625,8.96 L39.0390625,5.94285714 L40.3159375,4.77142857 L40.6815625,4.77142857 L40.6815625,6.41714286 L41.6828125,6.41714286 L41.6828125,9.05142857 L43.5334375,9.05142857 L45.4009375,6.81714286 L47.4428125,6.81714286 L49.0121875,3.62285714 L52.8428125,3.62857143 L53.7540625,0.8 L54.1646875,0.8 L54.1646875,2.29142857 L54.9465625,2.29142857 L54.9465625,3.07428571 L52.4603125,5.99428571 L52.4603125,7.77142857 Z M13.5327788,26.2839266 L13.8444307,26.5866286 L13.5435079,26.9885121 L13.231856,26.6858102 L13.5327788,26.2839266 Z M11.5189108,30.7374286 L11.2117858,30.9157143 L9.22334827,28.826 L6.97166077,28.826 L6.42603577,28.2374286 L5.39328577,28.2374286 L5.39328577,28.9997143 L4.76047327,28.9997143 L3.50047327,30.9717143 L0.399973274,31.3608571 L0.399973274,31.074 L2.96216077,30.4071429 L3.08872327,29.4151429 L1.35509827,29.4151429 L1.35509827,27.4768571 L3.02628577,26.6454286 L3.02628577,25.8808571 L2.10547327,25.8808571 L2.10547327,25.1054286 L3.29909827,25.1054286 L3.29909827,24.8517143 L2.62072327,24.1414286 L3.56178577,23.1997143 L8.05391077,23.1997143 L8.05391077,27.6345714 L9.07709827,27.6345714 L9.07709827,28.2928571 L9.66997327,28.2928571 L11.5189108,30.7374286 Z M11.4170983,25.3825714 L12.2490358,25.3825714 L12.2490358,26.0545714 L11.4170983,26.0545714 L11.4170983,25.3825714 Z M15.0322858,26.9762857 L16.2737233,26.9762857 L16.2737233,27.3191429 L15.0322858,27.3191429 L15.0322858,26.9762857 Z M17.6445358,28.534 L17.3514733,29.242 L16.5673483,29.242 L16.5673483,28.1997143 L15.9874108,28.1654286 L15.9874108,27.8774286 L17.0696608,27.8774286 L17.6445358,28.534 Z M20.3833483,30.6505714 L19.9558483,31.1642857 L19.5733483,30.8465714 L18.4185358,31.6751429 L17.8290358,31.3385714 L17.8290358,30.0734286 L18.5794108,29.762 L18.5794108,29.1117143 L20.3833483,30.6505714 Z" id="path-1"></path>
    </defs>
    <g id="Page-1" stroke="none" stroke-width="1" fill="none" fill-rule="evenodd" sketch:type="MSPage">
        <g id="Group" sketch:type="MSLayerGroup" transform="translate(-1.000000, -1.000000)">
            <g>
                <mask id="mask-2" sketch:name="Mask" fill="white">
                    <use xlink:href="#path-1"></use>
                </mask>
                <g id="Mask">
                    <use sketch:type="MSShapeGroup" xlink:href="#path-1"></use>
                    <use xlink:href="#path-1"></use>
                </g>
                <g mask="url(#mask-2)">
                    <g transform="translate(-5.000000, -1.000000)">
                        <g id="Group-Copy-11" stroke-width="1" fill="none" sketch:type="MSLayerGroup" transform="translate(8.317954, 0.290909)">
                            <polygon id="Polygon-1" fill="#FBBB77" sketch:type="MSShapeGroup" points="2.6122449 0 5.15729915 1.4 5.15729915 4.2 2.6122449 5.6 0.0671906501 4.2 0.0671906501 1.4 "></polygon>
                            <polygon id="Polygon-1-Copy-6" fill="#FEE5CB" sketch:type="MSShapeGroup" points="2.6122449 8.4 5.15729915 9.8 5.15729915 12.6 2.6122449 14 0.0671906501 12.6 0.0671906501 9.8 "></polygon>
                            <polygon id="Polygon-1-Copy-3" fill="#EE7619" sketch:type="MSShapeGroup" points="5.15987366 4.2 7.70492791 5.6 7.70492791 8.4 5.15987366 9.8 2.61481942 8.4 2.61481942 5.6 "></polygon>
                            <polygon id="Polygon-1-Copy-2" fill="#FEE5CB" sketch:type="MSShapeGroup" points="12.7976109 0 15.3426652 1.4 15.3426652 4.2 12.7976109 5.6 10.2525567 4.2 10.2525567 1.4 "></polygon>
                            <polygon id="Polygon-1-Copy-7" fill="#FBBB77" sketch:type="MSShapeGroup" points="12.7976109 8.4 15.3426652 9.8 15.3426652 12.6 12.7976109 14 10.2525567 12.6 10.2525567 9.8 "></polygon>
                            <polygon id="Polygon-1-Copy-4" fill="#FEE5CB" sketch:type="MSShapeGroup" points="15.3452397 4.2 17.8902939 5.6 17.8902939 8.4 15.3452397 9.8 12.8001854 8.4 12.8001854 5.6 "></polygon>
                            <polygon id="Polygon-1-Copy" fill="#FBBB77" sketch:type="MSShapeGroup" points="7.70750243 0 10.2525567 1.4 10.2525567 4.2 7.70750243 5.6 5.16244818 4.2 5.16244818 1.4 "></polygon>
                            <polygon id="Polygon-1-Copy-8" fill="#FEE5CB" sketch:type="MSShapeGroup" points="7.70750243 8.4 10.2525567 9.8 10.2525567 12.6 7.70750243 14 5.16244818 12.6 5.16244818 9.8 "></polygon>
                            <polygon id="Polygon-1-Copy-5" fill="#FBBB77" sketch:type="MSShapeGroup" points="10.2551312 4.2 12.8001854 5.6 12.8001854 8.4 10.2551312 9.8 7.71007695 8.4 7.71007695 5.6 "></polygon>
                        </g>
                        <g id="Group-Copy-12" stroke-width="1" fill="none" sketch:type="MSLayerGroup" transform="translate(10.889383, 13.018182)">
                            <polygon id="Polygon-1" fill="#FBBB77" sketch:type="MSShapeGroup" points="2.6122449 0 5.15729915 1.4 5.15729915 4.2 2.6122449 5.6 0.0671906501 4.2 0.0671906501 1.4 "></polygon>
                            <polygon id="Polygon-1-Copy-6" fill="#FEE5CB" sketch:type="MSShapeGroup" points="2.6122449 8.4 5.15729915 9.8 5.15729915 12.6 2.6122449 14 0.0671906501 12.6 0.0671906501 9.8 "></polygon>
                            <polygon id="Polygon-1-Copy-3" fill="#FEE5CB" sketch:type="MSShapeGroup" points="5.15987366 4.2 7.70492791 5.6 7.70492791 8.4 5.15987366 9.8 2.61481942 8.4 2.61481942 5.6 "></polygon>
                            <polygon id="Polygon-1-Copy-2" fill="#EE7619" sketch:type="MSShapeGroup" points="12.7976109 0 15.3426652 1.4 15.3426652 4.2 12.7976109 5.6 10.2525567 4.2 10.2525567 1.4 "></polygon>
                            <polygon id="Polygon-1-Copy-7" fill="#FEE5CB" sketch:type="MSShapeGroup" points="12.7976109 8.4 15.3426652 9.8 15.3426652 12.6 12.7976109 14 10.2525567 12.6 10.2525567 9.8 "></polygon>
                            <polygon id="Polygon-1-Copy-4" fill="#FF913D" sketch:type="MSShapeGroup" points="15.3452397 4.2 17.8902939 5.6 17.8902939 8.4 15.3452397 9.8 12.8001854 8.4 12.8001854 5.6 "></polygon>
                            <polygon id="Polygon-1-Copy" fill="#FF913D" sketch:type="MSShapeGroup" points="7.70750243 0 10.2525567 1.4 10.2525567 4.2 7.70750243 5.6 5.16244818 4.2 5.16244818 1.4 "></polygon>
                            <polygon id="Polygon-1-Copy-8" fill="#FF913D" sketch:type="MSShapeGroup" points="7.70750243 8.4 10.2525567 9.8 10.2525567 12.6 7.70750243 14 5.16244818 12.6 5.16244818 9.8 "></polygon>
                            <polygon id="Polygon-1-Copy-5" fill="#FBBB77" sketch:type="MSShapeGroup" points="10.2551312 4.2 12.8001854 5.6 12.8001854 8.4 10.2551312 9.8 7.71007695 8.4 7.71007695 5.6 "></polygon>
                        </g>
                        <g id="Group-Copy-13" stroke-width="1" fill="none" sketch:type="MSLayerGroup" transform="translate(28.889383, 25.745455)">
                            <polygon id="Polygon-1" fill="#FBBB77" sketch:type="MSShapeGroup" points="2.6122449 0 5.15729915 1.4 5.15729915 4.2 2.6122449 5.6 0.0671906501 4.2 0.0671906501 1.4 "></polygon>
                            <polygon id="Polygon-1-Copy-3" fill="#EE7619" sketch:type="MSShapeGroup" points="5.15987366 4.2 7.70492791 5.6 7.70492791 8.4 5.15987366 9.8 2.61481942 8.4 2.61481942 5.6 "></polygon>
                            <polygon id="Polygon-1-Copy-2" fill="#FF913C" sketch:type="MSShapeGroup" points="12.7976109 0 15.3426652 1.4 15.3426652 4.2 12.7976109 5.6 10.2525567 4.2 10.2525567 1.4 "></polygon>
                            <polygon id="Polygon-1-Copy-4" fill="#FF913D" sketch:type="MSShapeGroup" points="15.3452397 4.2 17.8902939 5.6 17.8902939 8.4 15.3452397 9.8 12.8001854 8.4 12.8001854 5.6 "></polygon>
                            <polygon id="Polygon-1-Copy" fill="#FBBB77" sketch:type="MSShapeGroup" points="7.70750243 0 10.2525567 1.4 10.2525567 4.2 7.70750243 5.6 5.16244818 4.2 5.16244818 1.4 "></polygon>
                            <polygon id="Polygon-1-Copy-5" fill="#FBBB77" sketch:type="MSShapeGroup" points="10.2551312 4.2 12.8001854 5.6 12.8001854 8.4 10.2551312 9.8 7.71007695 8.4 7.71007695 5.6 "></polygon>
                        </g>
                        <g id="Group-Copy-14" stroke-width="1" fill="none" sketch:type="MSLayerGroup" transform="translate(44.317954, 25.745455)">
                            <polygon id="Polygon-1" fill="#FBBB77" sketch:type="MSShapeGroup" points="2.6122449 0 5.15729915 1.4 5.15729915 4.2 2.6122449 5.6 0.0671906501 4.2 0.0671906501 1.4 "></polygon>
                            <polygon id="Polygon-1-Copy-2" fill="#FEE5CB" sketch:type="MSShapeGroup" points="12.7976109 0 15.3426652 1.4 15.3426652 4.2 12.7976109 5.6 10.2525567 4.2 10.2525567 1.4 "></polygon>
                            <polygon id="Polygon-1-Copy-4" fill="#FF913D" sketch:type="MSShapeGroup" points="15.3452397 4.2 17.8902939 5.6 17.8902939 8.4 15.3452397 9.8 12.8001854 8.4 12.8001854 5.6 "></polygon>
                            <polygon id="Polygon-1-Copy" fill="#FF913D" sketch:type="MSShapeGroup" points="7.70750243 0 10.2525567 1.4 10.2525567 4.2 7.70750243 5.6 5.16244818 4.2 5.16244818 1.4 "></polygon>
                        </g>
                        <g id="Group-Copy-15" stroke-width="1" fill="none" sketch:type="MSLayerGroup" transform="translate(26.317954, 13.018182)">
                            <polygon id="Polygon-1" fill="#FBBB77" sketch:type="MSShapeGroup" points="2.6122449 0 5.15729915 1.4 5.15729915 4.2 2.6122449 5.6 0.0671906501 4.2 0.0671906501 1.4 "></polygon>
                            <polygon id="Polygon-1-Copy-6" fill="#FEE5CB" sketch:type="MSShapeGroup" points="2.6122449 8.4 5.15729915 9.8 5.15729915 12.6 2.6122449 14 0.0671906501 12.6 0.0671906501 9.8 "></polygon>
                            <polygon id="Polygon-1-Copy-3" fill="#FEE5CB" sketch:type="MSShapeGroup" points="5.15987366 4.2 7.70492791 5.6 7.70492791 8.4 5.15987366 9.8 2.61481942 8.4 2.61481942 5.6 "></polygon>
                            <polygon id="Polygon-1-Copy-2" fill="#FEE5CB" sketch:type="MSShapeGroup" points="12.7976109 0 15.3426652 1.4 15.3426652 4.2 12.7976109 5.6 10.2525567 4.2 10.2525567 1.4 "></polygon>
                            <polygon id="Polygon-1-Copy-7" fill="#FEE5CB" sketch:type="MSShapeGroup" points="12.7976109 8.4 15.3426652 9.8 15.3426652 12.6 12.7976109 14 10.2525567 12.6 10.2525567 9.8 "></polygon>
                            <polygon id="Polygon-1-Copy-4" fill="#FBBB77" sketch:type="MSShapeGroup" points="15.3452397 4.2 17.8902939 5.6 17.8902939 8.4 15.3452397 9.8 12.8001854 8.4 12.8001854 5.6 "></polygon>
                            <polygon id="Polygon-1-Copy" fill="#FF913D" sketch:type="MSShapeGroup" points="7.70750243 0 10.2525567 1.4 10.2525567 4.2 7.70750243 5.6 5.16244818 4.2 5.16244818 1.4 "></polygon>
                            <polygon id="Polygon-1-Copy-8" fill="#FF913D" sketch:type="MSShapeGroup" points="7.70750243 8.4 10.2525567 9.8 10.2525567 12.6 7.70750243 14 5.16244818 12.6 5.16244818 9.8 "></polygon>
                            <polygon id="Polygon-1-Copy-5" fill="#FBBB77" sketch:type="MSShapeGroup" points="10.2551312 4.2 12.8001854 5.6 12.8001854 8.4 10.2551312 9.8 7.71007695 8.4 7.71007695 5.6 "></polygon>
                        </g>
                        <g id="Group-Copy-16" stroke-width="1" fill="none" sketch:type="MSLayerGroup" transform="translate(41.746526, 13.018182)">
                            <polygon id="Polygon-1" fill="#FBBB77" sketch:type="MSShapeGroup" points="2.6122449 0 5.15729915 1.4 5.15729915 4.2 2.6122449 5.6 0.0671906501 4.2 0.0671906501 1.4 "></polygon>
                            <polygon id="Polygon-1-Copy-6" fill="#FEE5CB" sketch:type="MSShapeGroup" points="2.6122449 8.4 5.15729915 9.8 5.15729915 12.6 2.6122449 14 0.0671906501 12.6 0.0671906501 9.8 "></polygon>
                            <polygon id="Polygon-1-Copy-3" fill="#EE7619" sketch:type="MSShapeGroup" points="5.15987366 4.2 7.70492791 5.6 7.70492791 8.4 5.15987366 9.8 2.61481942 8.4 2.61481942 5.6 "></polygon>
                            <polygon id="Polygon-1-Copy-2" fill="#FEE5CB" sketch:type="MSShapeGroup" points="12.7976109 0 15.3426652 1.4 15.3426652 4.2 12.7976109 5.6 10.2525567 4.2 10.2525567 1.4 "></polygon>
                            <polygon id="Polygon-1-Copy-7" fill="#FBBB77" sketch:type="MSShapeGroup" points="12.7976109 8.4 15.3426652 9.8 15.3426652 12.6 12.7976109 14 10.2525567 12.6 10.2525567 9.8 "></polygon>
                            <polygon id="Polygon-1-Copy-4" fill="#FF913D" sketch:type="MSShapeGroup" points="15.3452397 4.2 17.8902939 5.6 17.8902939 8.4 15.3452397 9.8 12.8001854 8.4 12.8001854 5.6 "></polygon>
                            <polygon id="Polygon-1-Copy" fill="#FF913D" sketch:type="MSShapeGroup" points="7.70750243 0 10.2525567 1.4 10.2525567 4.2 7.70750243 5.6 5.16244818 4.2 5.16244818 1.4 "></polygon>
                            <polygon id="Polygon-1-Copy-8" fill="#FF913D" sketch:type="MSShapeGroup" points="7.70750243 8.4 10.2525567 9.8 10.2525567 12.6 7.70750243 14 5.16244818 12.6 5.16244818 9.8 "></polygon>
                            <polygon id="Polygon-1-Copy-5" fill="#FBBB77" sketch:type="MSShapeGroup" points="10.2551312 4.2 12.8001854 5.6 12.8001854 8.4 10.2551312 9.8 7.71007695 8.4 7.71007695 5.6 "></polygon>
                        </g>
                        <g id="Group-Copy-17" stroke-width="1" fill="none" sketch:type="MSLayerGroup" transform="translate(57.175097, 13.018182)">
                            <polygon id="Polygon-1" fill="#FBBB77" sketch:type="MSShapeGroup" points="2.6122449 0 5.15729915 1.4 5.15729915 4.2 2.6122449 5.6 0.0671906501 4.2 0.0671906501 1.4 "></polygon>
                            <polygon id="Polygon-1-Copy-6" fill="#FEE5CB" sketch:type="MSShapeGroup" points="2.6122449 8.4 5.15729915 9.8 5.15729915 12.6 2.6122449 14 0.0671906501 12.6 0.0671906501 9.8 "></polygon>
                        </g>
                        <g id="Group-Copy-18" stroke-width="1" fill="none" sketch:type="MSLayerGroup" transform="translate(23.746526, 0.290909)">
                            <polygon id="Polygon-1" fill="#FBBB77" sketch:type="MSShapeGroup" points="2.6122449 0 5.15729915 1.4 5.15729915 4.2 2.6122449 5.6 0.0671906501 4.2 0.0671906501 1.4 "></polygon>
                            <polygon id="Polygon-1-Copy-6" fill="#FF913D" sketch:type="MSShapeGroup" points="2.6122449 8.4 5.15729915 9.8 5.15729915 12.6 2.6122449 14 0.0671906501 12.6 0.0671906501 9.8 "></polygon>
                            <polygon id="Polygon-1-Copy-3" fill="#EE7619" sketch:type="MSShapeGroup" points="5.15987366 4.2 7.70492791 5.6 7.70492791 8.4 5.15987366 9.8 2.61481942 8.4 2.61481942 5.6 "></polygon>
                            <polygon id="Polygon-1-Copy-2" fill="#FEE5CB" sketch:type="MSShapeGroup" points="12.7976109 0 15.3426652 1.4 15.3426652 4.2 12.7976109 5.6 10.2525567 4.2 10.2525567 1.4 "></polygon>
                            <polygon id="Polygon-1-Copy-7" fill="#FEE5CB" sketch:type="MSShapeGroup" points="12.7976109 8.4 15.3426652 9.8 15.3426652 12.6 12.7976109 14 10.2525567 12.6 10.2525567 9.8 "></polygon>
                            <polygon id="Polygon-1-Copy-4" fill="#FF913D" sketch:type="MSShapeGroup" points="15.3452397 4.2 17.8902939 5.6 17.8902939 8.4 15.3452397 9.8 12.8001854 8.4 12.8001854 5.6 "></polygon>
                            <polygon id="Polygon-1-Copy" fill="#FF913D" sketch:type="MSShapeGroup" points="7.70750243 0 10.2525567 1.4 10.2525567 4.2 7.70750243 5.6 5.16244818 4.2 5.16244818 1.4 "></polygon>
                            <polygon id="Polygon-1-Copy-8" fill="#FEE5CB" sketch:type="MSShapeGroup" points="7.70750243 8.4 10.2525567 9.8 10.2525567 12.6 7.70750243 14 5.16244818 12.6 5.16244818 9.8 "></polygon>
                            <polygon id="Polygon-1-Copy-5" fill="#FBBB77" sketch:type="MSShapeGroup" points="10.2551312 4.2 12.8001854 5.6 12.8001854 8.4 10.2551312 9.8 7.71007695 8.4 7.71007695 5.6 "></polygon>
                        </g>
                        <g id="Group-Copy-19" stroke-width="1" fill="none" sketch:type="MSLayerGroup" transform="translate(39.175097, 0.290909)">
                            <polygon id="Polygon-1" fill="#FBBB77" sketch:type="MSShapeGroup" points="2.6122449 0 5.15729915 1.4 5.15729915 4.2 2.6122449 5.6 0.0671906501 4.2 0.0671906501 1.4 "></polygon>
                            <polygon id="Polygon-1-Copy-6" fill="#FBBB77" sketch:type="MSShapeGroup" points="2.6122449 8.4 5.15729915 9.8 5.15729915 12.6 2.6122449 14 0.0671906501 12.6 0.0671906501 9.8 "></polygon>
                            <polygon id="Polygon-1-Copy-3" fill="#FBBB77" sketch:type="MSShapeGroup" points="5.15987366 4.2 7.70492791 5.6 7.70492791 8.4 5.15987366 9.8 2.61481942 8.4 2.61481942 5.6 "></polygon>
                            <polygon id="Polygon-1-Copy-7" fill="#FBBB77" sketch:type="MSShapeGroup" points="12.7976109 8.4 15.3426652 9.8 15.3426652 12.6 12.7976109 14 10.2525567 12.6 10.2525567 9.8 "></polygon>
                            <polygon id="Polygon-1-Copy-4" fill="#FF913D" sketch:type="MSShapeGroup" points="15.3452397 4.2 17.8902939 5.6 17.8902939 8.4 15.3452397 9.8 12.8001854 8.4 12.8001854 5.6 "></polygon>
                            <polygon id="Polygon-1-Copy" fill="#FF913D" sketch:type="MSShapeGroup" points="7.70750243 0 10.2525567 1.4 10.2525567 4.2 7.70750243 5.6 5.16244818 4.2 5.16244818 1.4 "></polygon>
                            <polygon id="Polygon-1-Copy-8" fill="#FF913D" sketch:type="MSShapeGroup" points="7.70750243 8.4 10.2525567 9.8 10.2525567 12.6 7.70750243 14 5.16244818 12.6 5.16244818 9.8 "></polygon>
                            <polygon id="Polygon-1-Copy-5" fill="#FBBB77" sketch:type="MSShapeGroup" points="10.2551312 4.2 12.8001854 5.6 12.8001854 8.4 10.2551312 9.8 7.71007695 8.4 7.71007695 5.6 "></polygon>
                        </g>
                        <g id="Group-Copy-20" stroke-width="1" fill="none" sketch:type="MSLayerGroup" transform="translate(54.603669, 4.109091)">
                            <polygon id="Polygon-1-Copy-6" fill="#FEE5CB" sketch:type="MSShapeGroup" points="2.6122449 4.58181818 5.15729915 5.98181818 5.15729915 8.78181818 2.6122449 10.1818182 0.0671906501 8.78181818 0.0671906501 5.98181818 "></polygon>
                        </g>
                        <polygon id="Polygon-1-Copy-27" fill="#FBBB77" sketch:type="MSShapeGroup" points="21.2542201 25.7454545 23.7992743 27.1454545 23.7992743 29.9454545 21.2542201 31.3454545 18.7091658 29.9454545 18.7091658 27.1454545 "></polygon>
                        <polygon id="Polygon-1-Copy-28" fill="#FF913D" sketch:type="MSShapeGroup" points="26.3443286 25.7454545 28.8893828 27.1454545 28.8893828 29.9454545 26.3443286 31.3454545 23.7992743 29.9454545 23.7992743 27.1454545 "></polygon>
                        <polygon id="Polygon-1-Copy-34" fill="#FBBB77" sketch:type="MSShapeGroup" points="5.70659131 21.2454545 8.25164556 22.6454545 8.25164556 25.4454545 5.70659131 26.8454545 3.16153707 25.4454545 3.16153707 22.6454545 "></polygon>
                        <polygon id="Polygon-1-Copy-35" fill="#EE7619" sketch:type="MSShapeGroup" points="8.25422008 25.4454545 10.7992743 26.8454545 10.7992743 29.6454545 8.25422008 31.0454545 5.70916583 29.6454545 5.70916583 26.8454545 "></polygon>
                        <polygon id="Polygon-1-Copy-36" fill="#FEE5CB" sketch:type="MSShapeGroup" points="13.3443286 25.4454545 15.8893828 26.8454545 15.8893828 29.6454545 13.3443286 31.0454545 10.7992743 29.6454545 10.7992743 26.8454545 "></polygon>
                        <polygon id="Polygon-1-Copy-37" fill="#FF913D" sketch:type="MSShapeGroup" points="10.8018488 21.2454545 13.3469031 22.6454545 13.3469031 25.4454545 10.8018488 26.8454545 8.2567946 25.4454545 8.2567946 22.6454545 "></polygon>
                    </g>
                </g>
            </g>
        </g>
    </g>
</svg>