<?xml version="1.0" encoding="UTF-8" standalone="no"?>
<svg width="54px" height="43px" viewBox="0 0 54 43" version="1.1" xmlns="http://www.w3.org/2000/svg" xmlns:xlink="http://www.w3.org/1999/xlink" xmlns:sketch="http://www.bohemiancoding.com/sketch/ns">
    <!-- Generator: Sketch 3.2.2 (9983) - http://www.bohemiancoding.com/sketch -->
    <title>Group</title>
    <desc>Created with Sketch.</desc>
    <defs></defs>
    <g id="Page-1" stroke="none" stroke-width="1" fill="none" fill-rule="evenodd" sketch:type="MSPage">
        <g id="Group" sketch:type="MSLayerGroup">
            <path d="M24.8,18.8 L0.2,18.8 L0.2,0.3 L1.7,0.3 L1.7,17.2 L24.8,17.2 L24.8,18.8" id="Fill-97" fill="#63574B" sketch:type="MSShapeGroup"></path>
            <path d="M4.8,9.5 L7.9,9.5 L7.9,15.7 L4.8,15.7 L4.8,9.5 Z" id="Fill-98" fill="#1471B9" sketch:type="MSShapeGroup"></path>
            <path d="M9.4,3.4 L12.5,3.4 L12.5,15.7 L9.4,15.7 L9.4,3.4 Z" id="Fill-99" fill="#1471B9" sketch:type="MSShapeGroup"></path>
            <path d="M14.1,6.4 L17.2,6.4 L17.2,15.6 L14.1,15.6 L14.1,6.4 Z" id="Fill-100" fill="#1471B9" sketch:type="MSShapeGroup"></path>
            <path d="M18.7,1.8 L21.8,1.8 L21.8,15.7 L18.7,15.7 L18.7,1.8 Z" id="Fill-101" fill="#1471B9" sketch:type="MSShapeGroup"></path>
            <path d="M24.8,42.6 L0.2,42.6 L0.2,24.1 L1.7,24.1 L1.7,41 L24.8,41 L24.8,42.6" id="Fill-102" fill="#63574B" sketch:type="MSShapeGroup"></path>
            <path d="M14.1,33.4 L17.2,33.4 L17.2,39.599 L14.1,39.599 L14.1,33.4 Z" id="Fill-103" fill="#1471B9" sketch:type="MSShapeGroup"></path>
            <path d="M9.4,27.2 L12.5,27.2 L12.5,39.5 L9.4,39.5 L9.4,27.2 Z" id="Fill-104" fill="#1471B9" sketch:type="MSShapeGroup"></path>
            <path d="M4.8,30.3 L7.9,30.3 L7.9,39.5 L4.8,39.5 L4.8,30.3 Z" id="Fill-105" fill="#1471B9" sketch:type="MSShapeGroup"></path>
            <path d="M18.7,25.7 L21.8,25.7 L21.8,39.599 L18.7,39.599 L18.7,25.7 Z" id="Fill-106" fill="#1471B9" sketch:type="MSShapeGroup"></path>
            <path d="M53.8,18.8 L29.1,18.8 L29.1,0.3 L30.7,0.3 L30.7,17.2 L53.8,17.2 L53.8,18.8" id="Fill-107" fill="#63574B" sketch:type="MSShapeGroup"></path>
            <path d="M33.7,9.5 L36.8,9.5 L36.8,15.7 L33.7,15.7 L33.7,9.5 Z" id="Fill-108" fill="#1471B9" sketch:type="MSShapeGroup"></path>
            <path d="M38.3,3.4 L41.4,3.4 L41.4,15.7 L38.3,15.7 L38.3,3.4 Z" id="Fill-109" fill="#1471B9" sketch:type="MSShapeGroup"></path>
            <path d="M47.6,6.4 L50.7,6.4 L50.7,15.6 L47.6,15.6 L47.6,6.4 Z" id="Fill-110" fill="#1471B9" sketch:type="MSShapeGroup"></path>
            <path d="M43,1.8 L46.1,1.8 L46.1,15.7 L43,15.7 L43,1.8 Z" id="Fill-111" fill="#1471B9" sketch:type="MSShapeGroup"></path>
            <path d="M53.8,42.6 L29.1,42.6 L29.1,24.1 L30.7,24.1 L30.7,41 L53.8,41 L53.8,42.6" id="Fill-112" fill="#63574B" sketch:type="MSShapeGroup"></path>
            <path d="M38.3,33.4 L41.4,33.4 L41.4,39.599 L38.3,39.599 L38.3,33.4 Z" id="Fill-113" fill="#1471B9" sketch:type="MSShapeGroup"></path>
            <path d="M47.6,27.2 L50.7,27.2 L50.7,39.5 L47.6,39.5 L47.6,27.2 Z" id="Fill-114" fill="#1471B9" sketch:type="MSShapeGroup"></path>
            <path d="M43,30.3 L46.1,30.3 L46.1,39.5 L43,39.5 L43,30.3 Z" id="Fill-115" fill="#1471B9" sketch:type="MSShapeGroup"></path>
            <path d="M33.7,25.7 L36.8,25.7 L36.8,39.599 L33.7,39.599 L33.7,25.7 Z" id="Fill-116" fill="#1471B9" sketch:type="MSShapeGroup"></path>
        </g>
    </g>
</svg>